<svg xmlns="http://www.w3.org/2000/svg" width="1920" height="200" viewBox="0 0 1920 200" preserveAspectRatio="none">
  <path id="Wave" d="M1919.5,1095.388H-.5V961.724c26.773-7.077,59.092-15.92,92.1-23.517,35.107-8.082,68.2-14.673,101.168-20.15,18.557-3.077,37.471-5.868,56.225-8.282,19.967-2.57,40.518-4.821,61.081-6.686,21.661-1.967,44.121-3.58,66.755-4.792,23.663-1.269,48.308-2.144,73.253-2.6,11-.205,22.077-.308,32.929-.308,24.534,0,49.09.523,72.985,1.554,22.747.982,45.638,2.462,68.039,4.391,41.375,3.568,81.906,8.694,123.911,15.67,35.184,5.846,71.868,13.09,112.15,22.155,35.009,7.878,68.6,16.163,105.743,25.4l5.986,1.49.082.021.05.012.025.006c33.574,8.349,68.291,16.982,103.107,24.912,39.063,8.9,74.278,15.985,107.66,21.667,39.991,6.807,78.319,11.806,117.174,15.278,21.009,1.878,42.459,3.315,63.75,4.273,22.311,1,45.207,1.51,68.052,1.51,10.592,0,21.392-.109,32.1-.323,25.38-.507,50.486-1.495,74.611-2.937,22.928-1.371,45.738-3.2,67.8-5.436,40.589-4.114,79.452-9.63,118.807-16.863,32.458-5.964,65.776-13.231,101.86-22.21,32.587-8.11,64.477-16.5,92.6-24.234v133.667Z" transform="translate(0.5 -895.391)" fill="#fff"/>
</svg>
